# xmcd CD database file
#
# Track frame offsets:
#	150
#	20246
#	36137
#	54791
#	77283
#	100378
#	122521
#	140607
#	166302
#	191384
#	211983
#	234565
#	255260
#	278291
#	299498
#
# Disc length: 4240 seconds
#
# Revision: 4
# Processed by: cddbd v1.5.1PL0 Copyright (c) Steve Scherf et al.
# Submitted via: CDex 1.51
#
DISCID=c3108e0f
DTITLE=EXILE - SELECT BEST
DYEAR=2005
DGENRE=Pop
TTITLE0=STAY
TTITLE1=ESCAPE
TTITLE2=wishes
TTITLE3=Time
TTITLE4=BLUE〜云えずにいる
TTITLE5=砂時計
TTITLE6=LET ME LEV U DOWN feat. ZEEBRA and MACCHO(OZROSAURUS)
TTITLE7=Be Mine feat.99%Radio Allstars
TTITLE8=Eternal...
TTITLE9=ki・zu・na
TTITLE10=O'ver
TTITLE11=New Jack Swing
TTITLE12=Believe
TTITLE13=Emotional Beat
TTITLE14=イノチの理由
EXTD=YEAR: 2005
EXTT0=
EXTT1=
EXTT2=
EXTT3=
EXTT4=
EXTT5=
EXTT6=
EXTT7=
EXTT8=
EXTT9=
EXTT10=
EXTT11=
EXTT12=
EXTT13=
EXTT14=
PLAYORDER=
